<svg width="26" height="26" viewBox="0 0 26 26" fill="none" xmlns="http://www.w3.org/2000/svg">
<path d="M20.9577 14.7083C20.6372 14.7083 20.3299 14.8356 20.1033 15.0622C19.8767 15.2888 19.7493 15.5962 19.7493 15.9167V16.3758L17.961 14.5875C17.3296 13.961 16.4761 13.6095 15.5866 13.6095C14.6972 13.6095 13.8437 13.961 13.2123 14.5875L12.3664 15.4333L9.36977 12.4367C8.72949 11.8272 7.87937 11.4873 6.99539 11.4873C6.11141 11.4873 5.26129 11.8272 4.62102 12.4367L2.83268 14.225V7.45833C2.83268 7.13786 2.95999 6.83052 3.18659 6.60391C3.4132 6.3773 3.72055 6.25 4.04102 6.25H12.4993C12.8198 6.25 13.1272 6.12269 13.3538 5.89608C13.5804 5.66948 13.7077 5.36213 13.7077 5.04166C13.7077 4.72119 13.5804 4.41385 13.3538 4.18724C13.1272 3.96064 12.8198 3.83333 12.4993 3.83333H4.04102C3.07961 3.83333 2.15757 4.21525 1.47775 4.89507C0.797934 5.57489 0.416016 6.49692 0.416016 7.45833V21.9583C0.416016 22.9197 0.797934 23.8418 1.47775 24.5216C2.15757 25.2014 3.07961 25.5833 4.04102 25.5833H18.541C19.5024 25.5833 20.4245 25.2014 21.1043 24.5216C21.7841 23.8418 22.166 22.9197 22.166 21.9583V15.9167C22.166 15.5962 22.0387 15.2888 21.8121 15.0622C21.5855 14.8356 21.2782 14.7083 20.9577 14.7083ZM4.04102 23.1667C3.72055 23.1667 3.4132 23.0394 3.18659 22.8128C2.95999 22.5861 2.83268 22.2788 2.83268 21.9583V17.6446L6.33685 14.1404C6.51437 13.9712 6.75018 13.8769 6.99539 13.8769C7.2406 13.8769 7.47641 13.9712 7.65393 14.1404L11.4843 17.9708L16.6802 23.1667H4.04102ZM19.7493 21.9583C19.7476 22.1896 19.6713 22.4142 19.5318 22.5987L14.0823 17.125L14.9281 16.2792C15.0147 16.1907 15.1181 16.1205 15.2322 16.0726C15.3464 16.0246 15.4689 15.9999 15.5927 15.9999C15.7165 15.9999 15.839 16.0246 15.9531 16.0726C16.0672 16.1205 16.1706 16.1907 16.2573 16.2792L19.7493 19.7954V21.9583ZM25.4406 4.18375L21.8156 0.558747C21.7007 0.448739 21.5652 0.362507 21.4168 0.304997C21.1227 0.184142 20.7927 0.184142 20.4985 0.304997C20.3502 0.362507 20.2147 0.448739 20.0998 0.558747L16.4748 4.18375C16.2472 4.41128 16.1194 4.71988 16.1194 5.04166C16.1194 5.36344 16.2472 5.67205 16.4748 5.89958C16.7023 6.12711 17.0109 6.25494 17.3327 6.25494C17.6545 6.25494 17.9631 6.12711 18.1906 5.89958L19.7493 4.32875V11.0833C19.7493 11.4038 19.8767 11.7111 20.1033 11.9377C20.3299 12.1644 20.6372 12.2917 20.9577 12.2917C21.2782 12.2917 21.5855 12.1644 21.8121 11.9377C22.0387 11.7111 22.166 11.4038 22.166 11.0833V4.32875L23.7248 5.89958C23.8371 6.01283 23.9707 6.10273 24.118 6.16407C24.2652 6.22542 24.4232 6.257 24.5827 6.257C24.7422 6.257 24.9001 6.22542 25.0474 6.16407C25.1946 6.10273 25.3283 6.01283 25.4406 5.89958C25.5539 5.78725 25.6437 5.65361 25.7051 5.50636C25.7664 5.35911 25.798 5.20118 25.798 5.04166C25.798 4.88215 25.7664 4.72421 25.7051 4.57697C25.6437 4.42972 25.5539 4.29608 25.4406 4.18375Z" fill="#9A9A9A"/>
</svg>
