<svg width="29" height="29" viewBox="0 0 29 29" fill="none" xmlns="http://www.w3.org/2000/svg">
<path d="M22.9577 15.7083C22.6372 15.7083 22.3299 15.8356 22.1033 16.0622C21.8767 16.2888 21.7493 16.5962 21.7493 16.9167V17.3758L19.961 15.5875C19.3296 14.961 18.4761 14.6095 17.5866 14.6095C16.6972 14.6095 15.8437 14.961 15.2123 15.5875L14.3664 16.4333L11.3698 13.4367C10.7295 12.8272 9.87937 12.4873 8.99539 12.4873C8.11141 12.4873 7.26129 12.8272 6.62102 13.4367L4.83268 15.225V8.45833C4.83268 8.13786 4.95999 7.83052 5.18659 7.60391C5.4132 7.3773 5.72055 7.25 6.04102 7.25H14.4993C14.8198 7.25 15.1272 7.12269 15.3538 6.89608C15.5804 6.66948 15.7077 6.36213 15.7077 6.04166C15.7077 5.72119 15.5804 5.41385 15.3538 5.18724C15.1272 4.96064 14.8198 4.83333 14.4993 4.83333H6.04102C5.07961 4.83333 4.15757 5.21525 3.47775 5.89507C2.79793 6.57489 2.41602 7.49692 2.41602 8.45833V22.9583C2.41602 23.9197 2.79793 24.8418 3.47775 25.5216C4.15757 26.2014 5.07961 26.5833 6.04102 26.5833H20.541C21.5024 26.5833 22.4245 26.2014 23.1043 25.5216C23.7841 24.8418 24.166 23.9197 24.166 22.9583V16.9167C24.166 16.5962 24.0387 16.2888 23.8121 16.0622C23.5855 15.8356 23.2782 15.7083 22.9577 15.7083ZM6.04102 24.1667C5.72055 24.1667 5.4132 24.0394 5.18659 23.8128C4.95999 23.5861 4.83268 23.2788 4.83268 22.9583V18.6446L8.33685 15.1404C8.51437 14.9712 8.75018 14.8769 8.99539 14.8769C9.2406 14.8769 9.47641 14.9712 9.65393 15.1404L13.4843 18.9708L18.6802 24.1667H6.04102ZM21.7493 22.9583C21.7476 23.1896 21.6713 23.4142 21.5318 23.5987L16.0823 18.125L16.9281 17.2792C17.0147 17.1907 17.1181 17.1205 17.2322 17.0726C17.3464 17.0246 17.4689 16.9999 17.5927 16.9999C17.7165 16.9999 17.839 17.0246 17.9531 17.0726C18.0672 17.1205 18.1706 17.1907 18.2573 17.2792L21.7493 20.7954V22.9583ZM27.4406 5.18375L23.8156 1.55875C23.7007 1.44874 23.5652 1.36251 23.4168 1.305C23.1227 1.18414 22.7927 1.18414 22.4985 1.305C22.3502 1.36251 22.2147 1.44874 22.0998 1.55875L18.4748 5.18375C18.2472 5.41128 18.1194 5.71988 18.1194 6.04166C18.1194 6.36344 18.2472 6.67205 18.4748 6.89958C18.7023 7.12711 19.0109 7.25494 19.3327 7.25494C19.6545 7.25494 19.9631 7.12711 20.1906 6.89958L21.7493 5.32875V12.0833C21.7493 12.4038 21.8767 12.7111 22.1033 12.9377C22.3299 13.1644 22.6372 13.2917 22.9577 13.2917C23.2782 13.2917 23.5855 13.1644 23.8121 12.9377C24.0387 12.7111 24.166 12.4038 24.166 12.0833V5.32875L25.7248 6.89958C25.8371 7.01283 25.9707 7.10273 26.118 7.16407C26.2652 7.22542 26.4232 7.257 26.5827 7.257C26.7422 7.257 26.9001 7.22542 27.0474 7.16407C27.1946 7.10273 27.3283 7.01283 27.4406 6.89958C27.5539 6.78725 27.6437 6.65361 27.7051 6.50636C27.7664 6.35911 27.798 6.20118 27.798 6.04166C27.798 5.88215 27.7664 5.72421 27.7051 5.57697C27.6437 5.42972 27.5539 5.29608 27.4406 5.18375Z" fill="#9A9A9A"/>
</svg>
