<svg width="22" height="17" viewBox="0 0 22 17" fill="none" xmlns="http://www.w3.org/2000/svg">
<path d="M22 3.71875C22 1.66813 17.072 0 11 0C4.928 0 0 1.66813 0 3.71875C0 5.64187 4.345 7.23562 9.9 7.41625V11.6875H8.085C7.183 11.6875 6.38 12.2188 6.039 13.0262L4.4 17H6.6L7.92 13.8125H14.08L15.4 17H17.6L15.95 13.0262C15.62 12.2188 14.806 11.6875 13.915 11.6875H12.1V7.41625C17.655 7.23562 22 5.64187 22 3.71875ZM11 2.125C15.455 2.125 18.414 3.03875 19.492 3.71875C18.414 4.39875 15.455 5.3125 11 5.3125C6.545 5.3125 3.586 4.39875 2.508 3.71875C3.586 3.03875 6.545 2.125 11 2.125Z" fill="white"/>
</svg>
