<svg width="25" height="25" viewBox="0 0 22 18" fill="none" xmlns="http://www.w3.org/2000/svg">
<path d="M22 4.69531C22 2.64469 17.072 0.976562 11 0.976562C4.928 0.976562 0 2.64469 0 4.69531C0 6.61844 4.345 8.21219 9.9 8.39281V12.6641H8.085C7.183 12.6641 6.38 13.1953 6.039 14.0028L4.4 17.9766H6.6L7.92 14.7891H14.08L15.4 17.9766H17.6L15.95 14.0028C15.62 13.1953 14.806 12.6641 13.915 12.6641H12.1V8.39281C17.655 8.21219 22 6.61844 22 4.69531ZM11 3.10156C15.455 3.10156 18.414 4.01531 19.492 4.69531C18.414 5.37531 15.455 6.28906 11 6.28906C6.545 6.28906 3.586 5.37531 2.508 4.69531C3.586 4.01531 6.545 3.10156 11 3.10156Z" fill="#9A9A9A"/>
</svg>
